<?xml version="1.0" encoding="UTF-8" standalone="no"?>
<svg
   xmlns:dc="http://purl.org/dc/elements/1.1/"
   xmlns:cc="http://creativecommons.org/ns#"
   xmlns:rdf="http://www.w3.org/1999/02/22-rdf-syntax-ns#"
   xmlns:svg="http://www.w3.org/2000/svg"
   xmlns="http://www.w3.org/2000/svg"
   xmlns:sodipodi="http://sodipodi.sourceforge.net/DTD/sodipodi-0.dtd"
   xmlns:inkscape="http://www.inkscape.org/namespaces/inkscape"
   viewBox="0 0 256 256"
   width="512"
   height="512"
   version="1.1"
   id="svg6"
   sodipodi:docname="Cart.svg"
   style="fill:#000000"
   inkscape:version="0.92.4 (5da689c313, 2019-01-14)"
   inkscape:export-filename="/home/jacobsp/Projects/Cyclone/Assets/Cart.png"
   inkscape:export-xdpi="96"
   inkscape:export-ydpi="96">
  <metadata
     id="metadata12">
    <rdf:RDF>
      <cc:Work
         rdf:about="">
        <dc:format>image/svg+xml</dc:format>
        <dc:type
           rdf:resource="http://purl.org/dc/dcmitype/StillImage" />
        <dc:title />
      </cc:Work>
    </rdf:RDF>
  </metadata>
  <defs
     id="defs10" />
  <sodipodi:namedview
     pagecolor="#ffffff"
     bordercolor="#666666"
     borderopacity="1"
     objecttolerance="10"
     gridtolerance="10"
     guidetolerance="10"
     inkscape:pageopacity="0"
     inkscape:pageshadow="2"
     inkscape:window-width="1360"
     inkscape:window-height="739"
     id="namedview8"
     showgrid="false"
     inkscape:zoom="0.5580242"
     inkscape:cx="44.12548"
     inkscape:cy="88.085846"
     inkscape:window-x="0"
     inkscape:window-y="0"
     inkscape:window-maximized="1"
     inkscape:current-layer="svg6" />
  <path
     d="m 93.764141,179.3538 c -9.414856,0 -17.032328,7.70305 -17.032328,17.11789 0,9.41485 7.617472,17.1179 17.032328,17.1179 9.414859,0 17.117919,-7.70305 17.117919,-17.1179 0,-9.41484 -7.70306,-17.11789 -17.117919,-17.11789 z M 42.410387,42.410412 v 17.117896 h 17.117917 l 30.812252,64.962562 -11.554594,20.96937 c -1.369433,2.39658 -2.139739,5.22104 -2.139739,8.21666 0,9.41485 7.703062,17.1179 17.117918,17.1179 H 196.47166 V 153.6769 H 97.358904 c -1.198254,0 -2.13974,-0.94106 -2.13974,-2.13978 l 0.256764,-1.0268 7.703062,-13.9511 h 63.76424 c 6.41922,0 12.06814,-3.50914 14.97818,-8.81571 l 30.64107,-55.547606 c 0.68468,-1.19829 1.02713,-2.65328 1.02713,-4.10838 0,-4.70743 -3.85154,-8.558899 -8.55896,-8.558899 H 78.443604 L 70.398183,42.410729 Z M 179.35372,179.3538 c -9.41484,0 -17.03232,7.70305 -17.03232,17.11789 0,9.41485 7.61748,17.1179 17.03232,17.1179 9.41486,0 17.11794,-7.70305 17.11794,-17.1179 0,-9.41484 -7.70308,-17.11789 -17.11794,-17.11789 z"
     id="path2"
     style="fill:#241f1c;stroke-width:8.55895996"
     inkscape:connector-curvature="0" />
  <path
     style="fill:#ffcc00;stroke-width:3.64095283"
     inkscape:connector-curvature="0"
     id="path4"
     d="m 165.48667,100.64095 h -21.84572 v 21.84572 h -7.28191 v -21.84572 h -21.84571 v -7.28191 h 21.84571 V 71.51333 h 7.28191 v 21.84571 h 21.84572 z" />
</svg>
