<?xml version="1.0" encoding="UTF-8" standalone="no"?>
<svg
   xmlns:dc="http://purl.org/dc/elements/1.1/"
   xmlns:cc="http://creativecommons.org/ns#"
   xmlns:rdf="http://www.w3.org/1999/02/22-rdf-syntax-ns#"
   xmlns:svg="http://www.w3.org/2000/svg"
   xmlns="http://www.w3.org/2000/svg"
   xmlns:sodipodi="http://sodipodi.sourceforge.net/DTD/sodipodi-0.dtd"
   xmlns:inkscape="http://www.inkscape.org/namespaces/inkscape"
   viewBox="0 0 256 256"
   width="512"
   height="512"
   version="1.1"
   id="svg8"
   sodipodi:docname="Clock.svg"
   style="fill:#000000"
   inkscape:version="0.92.4 (5da689c313, 2019-01-14)"
   inkscape:export-filename="/home/jacobsp/Projects/Cyclone/Assets/Clock.png"
   inkscape:export-xdpi="96"
   inkscape:export-ydpi="96">
  <metadata
     id="metadata14">
    <rdf:RDF>
      <cc:Work
         rdf:about="">
        <dc:format>image/svg+xml</dc:format>
        <dc:type
           rdf:resource="http://purl.org/dc/dcmitype/StillImage" />
        <dc:title />
      </cc:Work>
    </rdf:RDF>
  </metadata>
  <defs
     id="defs12" />
  <sodipodi:namedview
     pagecolor="#ffffff"
     bordercolor="#666666"
     borderopacity="1"
     objecttolerance="10"
     gridtolerance="10"
     guidetolerance="10"
     inkscape:pageopacity="0"
     inkscape:pageshadow="2"
     inkscape:window-width="1360"
     inkscape:window-height="699"
     id="namedview10"
     showgrid="false"
     inkscape:zoom="0.60263836"
     inkscape:cx="-66.173821"
     inkscape:cy="246.46118"
     inkscape:window-x="0"
     inkscape:window-y="0"
     inkscape:window-maximized="1"
     inkscape:current-layer="svg8" />
  <path
     d="m 127.90925,37.248418 c -50.094866,0 -90.660822,40.656704 -90.660822,90.751582 0,50.09487 40.565956,90.75158 90.660822,90.75158 50.18563,0 90.84232,-40.65671 90.84232,-90.75158 0,-50.094878 -40.65669,-90.751581 -90.84232,-90.751582 z m 0.0908,163.352842 c -40.112192,0 -72.601259,-32.48906 -72.601259,-72.60126 0,-40.1122 32.489066,-72.601269 72.601259,-72.601269 40.1122,0 72.60127,32.489069 72.60127,72.601269 0,40.1122 -32.48907,72.60126 -72.60127,72.60126 z"
     id="path2"
     inkscape:connector-curvature="0"
     style="stroke-width:9.07515812;fill:#ffcc00" />
  <path
     d="m 132.53758,82.624209 h -13.61274 v 54.450951 l 47.6446,28.58675 6.80635,-11.16245 -40.83821,-24.23067 z"
     id="path6"
     inkscape:connector-curvature="0"
     style="stroke-width:9.07515812;fill:#ffcc00" />
</svg>
