<?xml version="1.0" encoding="UTF-8" standalone="no"?>
<svg
   xmlns:dc="http://purl.org/dc/elements/1.1/"
   xmlns:cc="http://creativecommons.org/ns#"
   xmlns:rdf="http://www.w3.org/1999/02/22-rdf-syntax-ns#"
   xmlns:svg="http://www.w3.org/2000/svg"
   xmlns="http://www.w3.org/2000/svg"
   xmlns:sodipodi="http://sodipodi.sourceforge.net/DTD/sodipodi-0.dtd"
   xmlns:inkscape="http://www.inkscape.org/namespaces/inkscape"
   viewBox="0 0 256 256"
   width="512"
   height="512"
   version="1.1"
   id="svg6"
   sodipodi:docname="Money.svg"
   inkscape:version="0.92.4 (5da689c313, 2019-01-14)"
   style="fill:#000000"
   inkscape:export-filename="/home/jacobsp/Projects/Cyclone/Assets/Money.png"
   inkscape:export-xdpi="96"
   inkscape:export-ydpi="96">
  <metadata
     id="metadata12">
    <rdf:RDF>
      <cc:Work
         rdf:about="">
        <dc:format>image/svg+xml</dc:format>
        <dc:type
           rdf:resource="http://purl.org/dc/dcmitype/StillImage" />
        <dc:title></dc:title>
      </cc:Work>
    </rdf:RDF>
  </metadata>
  <defs
     id="defs10" />
  <sodipodi:namedview
     pagecolor="#ffffff"
     bordercolor="#666666"
     borderopacity="1"
     objecttolerance="10"
     gridtolerance="10"
     guidetolerance="10"
     inkscape:pageopacity="0"
     inkscape:pageshadow="2"
     inkscape:window-width="1366"
     inkscape:window-height="697"
     id="namedview8"
     showgrid="false"
     inkscape:zoom="0.96442779"
     inkscape:cx="283.32621"
     inkscape:cy="242.11209"
     inkscape:window-x="1360"
     inkscape:window-y="0"
     inkscape:window-maximized="1"
     inkscape:current-layer="svg6" />
  <path
     d="m 131.72617,117.49027 c -21.68826,-5.63703 -28.66289,-11.46513 -28.66289,-20.541738 0,-10.414173 9.64985,-17.675433 25.7966,-17.675433 17.00665,0 23.31248,8.121143 23.88573,20.064015 h 21.115 C 173.19181,82.90373 163.15979,67.807942 143.19132,62.935253 V 42.011346 h -28.66287 v 20.637279 c -18.535337,4.012804 -33.440044,16.051219 -33.440044,34.490998 0,22.070407 18.248697,33.057857 44.905194,39.459227 23.88573,5.73259 28.66288,14.14035 28.66288,23.02584 0,6.59248 -4.68161,17.10221 -25.7966,17.10221 -19.68184,0 -27.42082,-8.78997 -28.47179,-20.06403 H 79.368638 c 1.146511,20.9239 16.815555,32.6757 35.159812,36.59296 v 20.73282 h 28.66287 V 193.4469 c 18.63088,-3.53508 33.44004,-14.33144 33.44004,-33.91773 0,-27.1342 -23.21695,-36.40188 -44.90519,-42.0389 z"
     id="path2"
     style="fill:#ffcc00;stroke-width:9.55429554"
     inkscape:connector-curvature="0" />
</svg>
