<?xml version="1.0" encoding="UTF-8" standalone="no"?>
<svg
   xmlns:dc="http://purl.org/dc/elements/1.1/"
   xmlns:cc="http://creativecommons.org/ns#"
   xmlns:rdf="http://www.w3.org/1999/02/22-rdf-syntax-ns#"
   xmlns:svg="http://www.w3.org/2000/svg"
   xmlns="http://www.w3.org/2000/svg"
   xmlns:sodipodi="http://sodipodi.sourceforge.net/DTD/sodipodi-0.dtd"
   xmlns:inkscape="http://www.inkscape.org/namespaces/inkscape"
   viewBox="0 0 256 256"
   width="512"
   height="512"
   version="1.1"
   id="svg6"
   sodipodi:docname="Search.svg"
   inkscape:version="0.92.4 (5da689c313, 2019-01-14)"
   style="fill:#000000"
   inkscape:export-filename="/home/jacobsp/Projects/Cyclone/Assets/Search.png"
   inkscape:export-xdpi="96"
   inkscape:export-ydpi="96">
  <metadata
     id="metadata12">
    <rdf:RDF>
      <cc:Work
         rdf:about="">
        <dc:format>image/svg+xml</dc:format>
        <dc:type
           rdf:resource="http://purl.org/dc/dcmitype/StillImage" />
        <dc:title></dc:title>
      </cc:Work>
    </rdf:RDF>
  </metadata>
  <defs
     id="defs10" />
  <sodipodi:namedview
     pagecolor="#ffffff"
     bordercolor="#666666"
     borderopacity="1"
     objecttolerance="10"
     gridtolerance="10"
     guidetolerance="10"
     inkscape:pageopacity="0"
     inkscape:pageshadow="2"
     inkscape:window-width="1366"
     inkscape:window-height="697"
     id="namedview8"
     showgrid="false"
     inkscape:zoom="0.60618083"
     inkscape:cx="420.39986"
     inkscape:cy="212.67642"
     inkscape:window-x="1360"
     inkscape:window-y="0"
     inkscape:window-maximized="1"
     inkscape:current-layer="svg6" />
  <path
     d="m 169.82882,153.11957 h -8.80021 l -3.11905,-3.00767 c 10.9167,-12.69902 17.48901,-29.18548 17.48901,-47.12007 0,-39.990801 -32.41594,-72.406741 -72.40674,-72.406741 -39.990797,0 -72.406737,32.41594 -72.406737,72.406741 0,39.99079 32.41594,72.40673 72.406737,72.40673 17.93459,0 34.42105,-6.5723 47.12008,-17.48901 l 3.00766,3.11906 v 8.8002 l 55.69749,55.5861 16.59785,-16.59785 z m -66.83699,0 c -27.737349,0 -50.12774,-22.39039 -50.12774,-50.12774 0,-27.737353 22.390391,-50.127745 50.12774,-50.127745 27.73735,0 50.12774,22.390392 50.12774,50.127745 0,27.73735 -22.39039,50.12774 -50.12774,50.12774 z"
     id="path2"
     style="fill:#241f1c;stroke-width:11.13949776"
     inkscape:connector-curvature="0" />
</svg>
