<?xml version="1.0" encoding="UTF-8" standalone="no"?>
<svg
   xmlns:dc="http://purl.org/dc/elements/1.1/"
   xmlns:cc="http://creativecommons.org/ns#"
   xmlns:rdf="http://www.w3.org/1999/02/22-rdf-syntax-ns#"
   xmlns:svg="http://www.w3.org/2000/svg"
   xmlns="http://www.w3.org/2000/svg"
   xmlns:sodipodi="http://sodipodi.sourceforge.net/DTD/sodipodi-0.dtd"
   xmlns:inkscape="http://www.inkscape.org/namespaces/inkscape"
   height="512pt"
   viewBox="0 -93 512.00101 512"
   width="512pt"
   version="1.1"
   id="svg4"
   sodipodi:docname="SellBike.svg"
   inkscape:version="0.92.4 (5da689c313, 2019-01-14)"
   inkscape:export-filename="/home/jacobsp/Projects/Cyclone/Assets/SellBike.png"
   inkscape:export-xdpi="96"
   inkscape:export-ydpi="96">
  <metadata
     id="metadata10">
    <rdf:RDF>
      <cc:Work
         rdf:about="">
        <dc:format>image/svg+xml</dc:format>
        <dc:type
           rdf:resource="http://purl.org/dc/dcmitype/StillImage" />
        <dc:title />
      </cc:Work>
    </rdf:RDF>
  </metadata>
  <defs
     id="defs8" />
  <sodipodi:namedview
     pagecolor="#ffffff"
     bordercolor="#666666"
     borderopacity="1"
     objecttolerance="10"
     gridtolerance="10"
     guidetolerance="10"
     inkscape:pageopacity="0"
     inkscape:pageshadow="2"
     inkscape:window-width="1360"
     inkscape:window-height="739"
     id="namedview6"
     showgrid="false"
     inkscape:zoom="0.57165108"
     inkscape:cx="216.52671"
     inkscape:cy="328.1843"
     inkscape:window-x="0"
     inkscape:window-y="0"
     inkscape:window-maximized="1"
     inkscape:current-layer="svg4" />
  <text
     xml:space="preserve"
     style="font-style:normal;font-weight:normal;font-size:184.00035095px;line-height:125%;font-family:sans-serif;letter-spacing:0px;word-spacing:0px;fill:#ffcc00;fill-opacity:1;stroke:none;stroke-width:0.75000143px;stroke-linecap:butt;stroke-linejoin:miter;stroke-opacity:1"
     x="68.223572"
     y="122.49036"
     id="text818"><tspan
       sodipodi:role="line"
       id="tspan816"
       x="68.223572"
       y="122.49036"
       style="font-style:normal;font-variant:normal;font-weight:normal;font-stretch:normal;font-family:'Futura Hv BT';-inkscape-font-specification:'Futura Hv BT';fill:#ffcc00;stroke-width:0.75000143px">$</tspan></text>
  <path
     d="m 113.60684,171.57832 c 11.20377,0 21.91556,2.14934 31.7481,6.05375 l 27.41104,-46.29103 v -24.40685 c -6.63993,-0.87928 -11.76903,-6.54571 -11.76903,-13.426388 0,-7.487792 6.07118,-13.555485 13.55897,-13.555485 h 41.99933 c 7.4878,0 13.55549,6.067693 13.55549,13.555485 0,7.487788 -6.06769,13.558978 -13.55549,13.558978 h -16.67482 v 14.43127 H 350.46322 L 337.41017,69.086992 c -1.00837,-4.050944 -0.0977,-8.339153 2.47384,-11.625966 2.56804,-3.286813 6.50733,-5.209354 10.6804,-5.209354 h 47.42501 c 7.48779,0 13.55548,6.071183 13.55548,13.558976 0,7.487791 -6.06769,13.555485 -13.55548,13.555485 h -30.07329 l 23.04607,92.536687 c 2.44941,-0.20935 4.92672,-0.3245 7.43196,-0.3245 47.57155,0 86.2736,38.70206 86.2736,86.27361 0,47.57155 -38.70205,86.2736 -86.2736,86.2736 -47.57156,0 -86.27361,-38.70205 -86.27361,-86.2736 0,-35.60365 21.67832,-66.23521 52.5297,-79.39642 l -4.39986,-17.66574 -113.62185,106.93306 c -0.0732,0.0698 -0.1605,0.1326 -0.23726,0.20238 -0.19191,0.17446 -0.39079,0.34892 -0.59665,0.51291 -0.14306,0.11514 -0.2931,0.2233 -0.43964,0.33147 -0.19889,0.14306 -0.39776,0.28961 -0.60363,0.42219 -0.17795,0.11864 -0.36287,0.22331 -0.54431,0.33148 -0.18841,0.11165 -0.37683,0.22331 -0.57223,0.32449 -0.2268,0.11863 -0.46057,0.22331 -0.69434,0.33147 -0.13609,0.0628 -0.26169,0.13259 -0.40126,0.19191 -0.0349,0.0139 -0.0698,0.0209 -0.10468,0.0384 -0.24075,0.0977 -0.48499,0.17795 -0.73272,0.26169 -0.17447,0.0593 -0.34543,0.12562 -0.51989,0.17795 -0.1954,0.0593 -0.39428,0.0977 -0.59317,0.14654 -0.23028,0.0593 -0.46057,0.12562 -0.69434,0.17098 -0.0209,0.004 -0.0419,0.004 -0.0593,0.007 -0.83042,0.15702 -1.66434,0.23727 -2.49477,0.23727 -0.0314,0 -0.0628,-0.004 -0.0942,-0.004 h -38.43687 c -6.5213,41.15494 -42.24357,72.71812 -85.20243,72.71812 -47.571571,4.5e-4 -86.273618,-38.7016 -86.273618,-86.27315 0,-47.57155 38.702047,-86.27361 86.273608,-86.27361 z m 225.62818,86.27361 c 0,32.62039 26.53874,59.15914 59.15914,59.15914 32.62039,0 59.15914,-26.53875 59.15914,-59.15914 0,-32.6204 -26.53875,-59.15914 -59.15914,-59.15914 -0.25471,0 -0.50244,0.0174 -0.75715,0.0209 l 13.91487,55.86186 c 1.8074,7.26448 -2.61689,14.62318 -9.88137,16.43057 -1.0991,0.27565 -2.20168,0.40475 -3.28682,0.40475 -6.07815,0 -11.60852,-4.11724 -13.14725,-10.28263 l -13.90789,-55.85485 c -19.04049,9.84299 -32.09353,29.70693 -32.09353,52.57854 z M 137.39261,244.29295 h 33.78578 c -2.64829,-11.25611 -8.52059,-21.28054 -16.58758,-29.04397 z m 61.42013,0 H 217.0228 L 184.18957,165.2629 168.6627,191.48413 c 15.76413,13.09492 26.80042,31.68878 30.15004,52.80882 z m 7.82275,-95.68044 35.69787,85.92119 91.29105,-85.92119 z m -93.02865,168.39856 c 27.95535,0 51.42361,-19.49757 57.57155,-45.60366 h -57.57155 c -4.87091,0 -9.36847,-2.61339 -11.77949,-6.84228 -2.411033,-4.23239 -2.369162,-9.43128 0.11514,-13.62178 l 29.34056,-49.54993 c -5.5827,-1.75157 -11.52129,-2.70063 -17.67621,-2.70063 -32.620401,0 -59.159147,26.53874 -59.159147,59.15914 0,32.62039 26.538746,59.15914 59.159147,59.15914 z m 0,0"
     id="path2"
     inkscape:connector-curvature="0"
     style="stroke-width:0.89323151;fill:#241f1c;fill-opacity:1" />
</svg>
